<mxfile host="Electron" modified="2023-05-19T23:17:40.565Z" agent="Mozilla/5.0 (Windows NT 10.0; Win64; x64) AppleWebKit/537.36 (KHTML, like Gecko) draw.io/21.2.8 Chrome/112.0.5615.165 Electron/24.2.0 Safari/537.36" etag="gh5Om-9Dg4dm5HmEKECF" version="21.2.8" type="device">
  <diagram name="Page-1" id="oMIkyJOxRfOjJ0KMyJMb">
    <mxGraphModel dx="2404" dy="731" grid="1" gridSize="10" guides="1" tooltips="1" connect="1" arrows="1" fold="1" page="1" pageScale="1" pageWidth="1169" pageHeight="827" math="0" shadow="0">
      <root>
        <mxCell id="0" />
        <mxCell id="1" parent="0" />
        <UserObject label="&lt;div style=&quot;font-size: 11.27px;&quot;&gt;&lt;span style=&quot;font-size: 11.27px;&quot;&gt;Start&lt;/span&gt;&lt;/div&gt;" Function="EN_DIO_Error_T DIO_init(uint8_t pinNumber, EN_DIO_PORT_T portNumber, EN_DIO_DIRECTION_T direction);" tags="Flowchart" id="ufE7wBq0T08zSrdOL__J-1">
          <mxCell style="verticalAlign=middle;align=center;overflow=width;vsdxID=30;fillColor=#dae8fc;shape=stencil(tVLREoIgEPwaHnEQxsl3s/9gEpSJwDko7e+DsEkze2l627vdu5uFRaxyHe8FosR5sCcxqMZ3iO0Rpcp0ApQPCLEasUpaEC3Yi2lS3fOojOhsr3HDmObyMtsVcYqS29Qh5FEfklwrM5OXeUa/yjkcAwfr7TDpiyTfXvjkMR+Vw2A998qaBac5tAKHU1hq3i4oNwjRr9ofvayt/+Rk+yX/4iWA159KpXWKxJx/z0Bopfyw+g4=);strokeColor=#6c8ebf;spacingTop=-1;spacingBottom=-1;spacingLeft=-1;spacingRight=-1;points=[[0.5,1,0],[0.5,0,0],[0,0.5,0],[1,0.5,0]];labelBackgroundColor=none;rounded=1;html=1;whiteSpace=wrap;fontFamily=Calibri;fontSize=11.27;" vertex="1" parent="1">
            <mxGeometry x="229.5" y="40" width="101" height="38" as="geometry" />
          </mxCell>
        </UserObject>
        <mxCell id="ufE7wBq0T08zSrdOL__J-2" value="" style="endArrow=classic;html=1;rounded=0;fontSize=11.27;startSize=8;endSize=8;curved=1;exitX=0.5;exitY=1;exitDx=0;exitDy=0;exitPerimeter=0;entryX=0.5;entryY=0;entryDx=0;entryDy=0;fontFamily=Calibri;" edge="1" parent="1" source="ufE7wBq0T08zSrdOL__J-1" target="ufE7wBq0T08zSrdOL__J-3">
          <mxGeometry width="50" height="50" relative="1" as="geometry">
            <mxPoint x="250" y="340" as="sourcePoint" />
            <mxPoint x="280" y="130" as="targetPoint" />
          </mxGeometry>
        </mxCell>
        <mxCell id="ufE7wBq0T08zSrdOL__J-3" value="&lt;font face=&quot;Calibri&quot; style=&quot;font-size: 11.27px;&quot;&gt;en_dio_value_t pin_logic_status = DIO_LOW;&lt;/font&gt;" style="rounded=0;whiteSpace=wrap;html=1;fontSize=11.27;fillColor=#d5e8d4;strokeColor=#82b366;fontFamily=Calibri;" vertex="1" parent="1">
          <mxGeometry x="208.5" y="140" width="143" height="44" as="geometry" />
        </mxCell>
        <UserObject label="" Function="EN_DIO_Error_T DIO_init(uint8_t pinNumber, EN_DIO_PORT_T portNumber, EN_DIO_DIRECTION_T direction);" tags="Flowchart" id="ufE7wBq0T08zSrdOL__J-4">
          <mxCell style="vsdxID=219;fillColor=#fff2cc;shape=stencil(UzV2Ls5ILEhVNTIoLinKz04tz0wpyVA1dlE1MsrMy0gtyiwBslSNXVWNndPyi1LTi/JL81Ig/IJEkEoQKze/DGRCBUSfAUiHkUElhGcK4bpBVOZk5iGpNEVVikeloQHZpsK0YlWLz1QgA+HFtMycHEgIIcujBwlQCBKcxq4A);strokeColor=#d6b656;spacingTop=-1;spacingBottom=-1;spacingLeft=-1;spacingRight=-1;points=[[0,0.5,0],[1,0.5,0],[0.5,0,0],[0.5,1,0]];labelBackgroundColor=none;rounded=1;html=1;whiteSpace=wrap;fontFamily=Calibri;fontSize=11.27;" vertex="1" parent="1">
            <mxGeometry x="165" y="354" width="230" height="120" as="geometry" />
          </mxCell>
        </UserObject>
        <mxCell id="ufE7wBq0T08zSrdOL__J-5" value="&lt;div style=&quot;font-size: 11.27px;&quot;&gt;&lt;div style=&quot;font-size: 11.27px;&quot;&gt;		if(PUSH_BTN_PULL_UP == A_pbConfig[btnNumber].PUSH_BTN_co&lt;span style=&quot;font-size: 11.27px; background-color: initial;&quot;&gt;(PUSH_BTN_PULL_UP == A_pbConfig[btnNumber].PUSH_BTN_connection)&lt;/span&gt;&lt;/div&gt;&lt;div style=&quot;font-size: 11.27px;&quot;&gt;&lt;br style=&quot;font-size: 11.27px;&quot;&gt;&lt;/div&gt;&lt;/div&gt;" style="text;vsdxID=219;fillColor=none;gradientColor=none;strokeColor=none;spacingTop=-1;spacingBottom=-1;spacingLeft=-1;spacingRight=-1;points=[[0,0.5,0],[1,0.5,0],[0.5,0,0],[0.5,1,0]];labelBackgroundColor=none;rounded=1;html=1;whiteSpace=wrap;verticalAlign=middle;align=center;overflow=width;;html=1;fontColor=#000000;fontFamily=Calibri;fontSize=11.27;" vertex="1" parent="ufE7wBq0T08zSrdOL__J-4">
          <mxGeometry x="5.376037037037038" y="0.0004511278195503852" width="219.2496296296296" height="107.37428571428572" as="geometry" />
        </mxCell>
        <mxCell id="ufE7wBq0T08zSrdOL__J-6" value="" style="endArrow=classic;html=1;rounded=0;fontSize=11.27;startSize=8;endSize=8;curved=1;exitX=0.5;exitY=1;exitDx=0;exitDy=0;entryX=0.424;entryY=0;entryDx=0;entryDy=0;entryPerimeter=0;fontFamily=Calibri;" edge="1" parent="1" source="ufE7wBq0T08zSrdOL__J-3" target="ufE7wBq0T08zSrdOL__J-7">
          <mxGeometry width="50" height="50" relative="1" as="geometry">
            <mxPoint x="180" y="310" as="sourcePoint" />
            <mxPoint x="290" y="210" as="targetPoint" />
          </mxGeometry>
        </mxCell>
        <mxCell id="ufE7wBq0T08zSrdOL__J-7" value="&lt;div style=&quot;font-size: 11.27px;&quot;&gt;&lt;font style=&quot;font-size: 11.27px;&quot; face=&quot;Calibri&quot;&gt;DIO_read(A_pbConfig[btnNumber].PUSH_BTN_pin.dio_port,A_pbConfig[btnNumber].PUSH_BTN_pin.dio_pin,&amp;amp;pin_logic_status);&lt;/font&gt;&lt;/div&gt;&lt;div style=&quot;font-size: 11.27px;&quot;&gt;&lt;br style=&quot;font-size: 11.27px;&quot;&gt;&lt;/div&gt;" style="rounded=0;whiteSpace=wrap;html=1;fontSize=11.27;fillColor=#d5e8d4;strokeColor=#82b366;fontFamily=Calibri;" vertex="1" parent="1">
          <mxGeometry x="30" y="240" width="590" height="44" as="geometry" />
        </mxCell>
        <mxCell id="ufE7wBq0T08zSrdOL__J-8" value="" style="endArrow=classic;html=1;rounded=0;fontSize=11.27;startSize=8;endSize=8;curved=1;entryX=0.5;entryY=0;entryDx=0;entryDy=0;entryPerimeter=0;fontFamily=Calibri;" edge="1" parent="1" target="ufE7wBq0T08zSrdOL__J-5">
          <mxGeometry width="50" height="50" relative="1" as="geometry">
            <mxPoint x="280" y="280" as="sourcePoint" />
            <mxPoint x="360" y="320" as="targetPoint" />
          </mxGeometry>
        </mxCell>
        <mxCell id="ufE7wBq0T08zSrdOL__J-9" value="&lt;font style=&quot;font-size: 11.27px;&quot; face=&quot;Calibri&quot;&gt;*btn_state = PUSH_BTN_STATE_RELEASED&lt;/font&gt;" style="rounded=0;whiteSpace=wrap;html=1;fontSize=11.27;fillColor=#d5e8d4;strokeColor=#82b366;fontFamily=Calibri;" vertex="1" parent="1">
          <mxGeometry x="501.43" y="520" width="138.57" height="40" as="geometry" />
        </mxCell>
        <UserObject label="" Function="EN_DIO_Error_T DIO_init(uint8_t pinNumber, EN_DIO_PORT_T portNumber, EN_DIO_DIRECTION_T direction);" tags="Flowchart" id="ufE7wBq0T08zSrdOL__J-10">
          <mxCell style="vsdxID=219;fillColor=#fff2cc;shape=stencil(UzV2Ls5ILEhVNTIoLinKz04tz0wpyVA1dlE1MsrMy0gtyiwBslSNXVWNndPyi1LTi/JL81Ig/IJEkEoQKze/DGRCBUSfAUiHkUElhGcK4bpBVOZk5iGpNEVVikeloQHZpsK0YlWLz1QgA+HFtMycHEgIIcujBwlQCBKcxq4A);strokeColor=#d6b656;spacingTop=-1;spacingBottom=-1;spacingLeft=-1;spacingRight=-1;points=[[0,0.5,0],[1,0.5,0],[0.5,0,0],[0.5,1,0]];labelBackgroundColor=none;rounded=1;html=1;whiteSpace=wrap;fontFamily=Calibri;fontSize=11.27;" vertex="1" parent="1">
            <mxGeometry x="480" y="374.5" width="190" height="79" as="geometry" />
          </mxCell>
        </UserObject>
        <mxCell id="ufE7wBq0T08zSrdOL__J-11" value="&lt;div style=&quot;font-size: 11.27px;&quot;&gt;&lt;div style=&quot;font-size: 11.27px;&quot;&gt;DIO_HIGH == pin_logic_status&lt;br style=&quot;font-size: 11.27px;&quot;&gt;&lt;/div&gt;&lt;/div&gt;" style="text;vsdxID=219;fillColor=none;gradientColor=none;strokeColor=none;spacingTop=-1;spacingBottom=-1;spacingLeft=-1;spacingRight=-1;points=[[0,0.5,0],[1,0.5,0],[0.5,0,0],[0.5,1,0]];labelBackgroundColor=none;rounded=1;html=1;whiteSpace=wrap;verticalAlign=middle;align=center;overflow=width;;html=1;fontColor=#000000;fontFamily=Calibri;fontSize=11.27;" vertex="1" parent="ufE7wBq0T08zSrdOL__J-10">
          <mxGeometry x="45.509130434782605" y="18.104166666666664" width="94.84304347826087" height="42.791666666666664" as="geometry" />
        </mxCell>
        <mxCell id="ufE7wBq0T08zSrdOL__J-17" value="" style="endArrow=classic;html=1;rounded=0;fontSize=11.27;startSize=8;endSize=8;curved=1;exitX=1;exitY=0.5;exitDx=0;exitDy=0;exitPerimeter=0;entryX=0;entryY=0.5;entryDx=0;entryDy=0;entryPerimeter=0;fontFamily=Calibri;" edge="1" parent="1" source="ufE7wBq0T08zSrdOL__J-4" target="ufE7wBq0T08zSrdOL__J-10">
          <mxGeometry width="50" height="50" relative="1" as="geometry">
            <mxPoint x="395" y="414" as="sourcePoint" />
            <mxPoint x="410" y="369" as="targetPoint" />
          </mxGeometry>
        </mxCell>
        <mxCell id="ufE7wBq0T08zSrdOL__J-18" value="&lt;font style=&quot;font-size: 11.27px;&quot; face=&quot;Calibri&quot;&gt;*btn_state = PUSH_BTN_STATE_PRESSED&lt;/font&gt;" style="rounded=0;whiteSpace=wrap;html=1;fontSize=11.27;fillColor=#d5e8d4;strokeColor=#82b366;fontFamily=Calibri;" vertex="1" parent="1">
          <mxGeometry x="700" y="520" width="143" height="40" as="geometry" />
        </mxCell>
        <mxCell id="ufE7wBq0T08zSrdOL__J-21" value="" style="endArrow=classic;html=1;rounded=0;fontSize=11.27;startSize=8;endSize=8;curved=1;exitX=0.5;exitY=1;exitDx=0;exitDy=0;exitPerimeter=0;fontFamily=Calibri;" edge="1" parent="1" source="ufE7wBq0T08zSrdOL__J-10">
          <mxGeometry width="50" height="50" relative="1" as="geometry">
            <mxPoint x="590" y="430" as="sourcePoint" />
            <mxPoint x="575" y="520" as="targetPoint" />
          </mxGeometry>
        </mxCell>
        <mxCell id="ufE7wBq0T08zSrdOL__J-22" value="YES" style="text;html=1;strokeColor=none;fillColor=none;align=center;verticalAlign=middle;whiteSpace=wrap;rounded=0;fontFamily=Calibri;fontSize=11;" vertex="1" parent="1">
          <mxGeometry x="560" y="470" width="60" height="30" as="geometry" />
        </mxCell>
        <mxCell id="ufE7wBq0T08zSrdOL__J-24" value="YES" style="text;html=1;strokeColor=none;fillColor=none;align=center;verticalAlign=middle;whiteSpace=wrap;rounded=0;fontFamily=Calibri;fontSize=11;" vertex="1" parent="1">
          <mxGeometry x="400" y="390" width="60" height="30" as="geometry" />
        </mxCell>
        <mxCell id="ufE7wBq0T08zSrdOL__J-27" value="" style="endArrow=classic;html=1;rounded=0;fontSize=11.27;startSize=8;endSize=8;exitX=1;exitY=0.5;exitDx=0;exitDy=0;exitPerimeter=0;entryX=0.579;entryY=0.007;entryDx=0;entryDy=0;entryPerimeter=0;edgeStyle=orthogonalEdgeStyle;fontFamily=Calibri;" edge="1" parent="1" source="ufE7wBq0T08zSrdOL__J-10" target="ufE7wBq0T08zSrdOL__J-18">
          <mxGeometry width="50" height="50" relative="1" as="geometry">
            <mxPoint x="590" y="430" as="sourcePoint" />
            <mxPoint x="790" y="410" as="targetPoint" />
          </mxGeometry>
        </mxCell>
        <mxCell id="ufE7wBq0T08zSrdOL__J-28" value="NO" style="text;html=1;strokeColor=none;fillColor=none;align=center;verticalAlign=middle;whiteSpace=wrap;rounded=0;fontFamily=Calibri;fontSize=11;" vertex="1" parent="1">
          <mxGeometry x="720" y="460" width="60" height="30" as="geometry" />
        </mxCell>
        <mxCell id="ufE7wBq0T08zSrdOL__J-31" value="" style="endArrow=classic;html=1;rounded=0;fontSize=11.27;startSize=8;endSize=8;curved=1;exitX=0.5;exitY=1;exitDx=0;exitDy=0;exitPerimeter=0;fontFamily=Calibri;" edge="1" parent="1" source="ufE7wBq0T08zSrdOL__J-4" target="ufE7wBq0T08zSrdOL__J-35">
          <mxGeometry width="50" height="50" relative="1" as="geometry">
            <mxPoint x="340" y="440" as="sourcePoint" />
            <mxPoint x="322.5" y="530" as="targetPoint" />
          </mxGeometry>
        </mxCell>
        <UserObject label="" Function="EN_DIO_Error_T DIO_init(uint8_t pinNumber, EN_DIO_PORT_T portNumber, EN_DIO_DIRECTION_T direction);" tags="Flowchart" id="ufE7wBq0T08zSrdOL__J-34">
          <mxCell style="vsdxID=219;fillColor=#fff2cc;shape=stencil(UzV2Ls5ILEhVNTIoLinKz04tz0wpyVA1dlE1MsrMy0gtyiwBslSNXVWNndPyi1LTi/JL81Ig/IJEkEoQKze/DGRCBUSfAUiHkUElhGcK4bpBVOZk5iGpNEVVikeloQHZpsK0YlWLz1QgA+HFtMycHEgIIcujBwlQCBKcxq4A);strokeColor=#d6b656;spacingTop=-1;spacingBottom=-1;spacingLeft=-1;spacingRight=-1;points=[[0,0.5,0],[1,0.5,0],[0.5,0,0],[0.5,1,0]];labelBackgroundColor=none;rounded=1;html=1;whiteSpace=wrap;fontFamily=Calibri;fontSize=11.27;" vertex="1" parent="1">
            <mxGeometry x="152.5" y="520" width="255" height="140" as="geometry" />
          </mxCell>
        </UserObject>
        <mxCell id="ufE7wBq0T08zSrdOL__J-35" value="&lt;div style=&quot;font-size: 11.27px;&quot;&gt;&lt;div style=&quot;font-size: 11.27px;&quot;&gt;PUSH_BTN_PULL_DOWN == A_pbConfig[btnNumber].PUSH_BTN_connection&lt;br style=&quot;font-size: 11.27px;&quot;&gt;&lt;/div&gt;&lt;/div&gt;" style="text;vsdxID=219;fillColor=none;gradientColor=none;strokeColor=none;spacingTop=-1;spacingBottom=-1;spacingLeft=-1;spacingRight=-1;points=[[0,0.5,0],[1,0.5,0],[0.5,0,0],[0.5,1,0]];labelBackgroundColor=none;rounded=1;html=1;whiteSpace=wrap;verticalAlign=middle;align=center;overflow=width;;html=1;fontColor=#000000;fontFamily=Calibri;fontSize=11.27;" vertex="1" parent="ufE7wBq0T08zSrdOL__J-34">
          <mxGeometry x="5.96038888888889" y="0.0005263157894754494" width="243.08111111111108" height="125.27000000000001" as="geometry" />
        </mxCell>
        <mxCell id="ufE7wBq0T08zSrdOL__J-36" value="NO" style="text;html=1;strokeColor=none;fillColor=none;align=center;verticalAlign=middle;whiteSpace=wrap;rounded=0;fontFamily=Calibri;fontSize=11;" vertex="1" parent="1">
          <mxGeometry x="280" y="474" width="60" height="30" as="geometry" />
        </mxCell>
        <mxCell id="ufE7wBq0T08zSrdOL__J-37" value="&lt;font face=&quot;Calibri&quot; style=&quot;font-size: 11.27px;&quot;&gt;&lt;span style=&quot;font-size: 11.27px;&quot;&gt;Nothing&lt;/span&gt;&lt;/font&gt;" style="rounded=0;whiteSpace=wrap;html=1;fontSize=11.27;fillColor=#d5e8d4;strokeColor=#82b366;fontFamily=Calibri;" vertex="1" parent="1">
          <mxGeometry x="-69.99999999999994" y="570" width="138.57" height="40" as="geometry" />
        </mxCell>
        <mxCell id="ufE7wBq0T08zSrdOL__J-38" value="" style="endArrow=classic;html=1;rounded=0;fontSize=11.27;startSize=8;endSize=8;curved=1;entryX=1;entryY=0.5;entryDx=0;entryDy=0;fontFamily=Calibri;" edge="1" parent="1" target="ufE7wBq0T08zSrdOL__J-37">
          <mxGeometry width="50" height="50" relative="1" as="geometry">
            <mxPoint x="150" y="590" as="sourcePoint" />
            <mxPoint x="140" y="560" as="targetPoint" />
          </mxGeometry>
        </mxCell>
        <mxCell id="ufE7wBq0T08zSrdOL__J-39" value="NO" style="text;html=1;align=center;verticalAlign=middle;resizable=0;points=[];autosize=1;strokeColor=none;fillColor=none;fontFamily=Calibri;fontSize=11;" vertex="1" parent="1">
          <mxGeometry x="90" y="558" width="40" height="30" as="geometry" />
        </mxCell>
        <UserObject label="" Function="EN_DIO_Error_T DIO_init(uint8_t pinNumber, EN_DIO_PORT_T portNumber, EN_DIO_DIRECTION_T direction);" tags="Flowchart" id="ufE7wBq0T08zSrdOL__J-40">
          <mxCell style="vsdxID=219;fillColor=#fff2cc;shape=stencil(UzV2Ls5ILEhVNTIoLinKz04tz0wpyVA1dlE1MsrMy0gtyiwBslSNXVWNndPyi1LTi/JL81Ig/IJEkEoQKze/DGRCBUSfAUiHkUElhGcK4bpBVOZk5iGpNEVVikeloQHZpsK0YlWLz1QgA+HFtMycHEgIIcujBwlQCBKcxq4A);strokeColor=#d6b656;spacingTop=-1;spacingBottom=-1;spacingLeft=-1;spacingRight=-1;points=[[0,0.5,0],[1,0.5,0],[0.5,0,0],[0.5,1,0]];labelBackgroundColor=none;rounded=1;html=1;whiteSpace=wrap;fontFamily=Calibri;fontSize=11.27;" vertex="1" parent="1">
            <mxGeometry x="185" y="700" width="190" height="79" as="geometry" />
          </mxCell>
        </UserObject>
        <mxCell id="ufE7wBq0T08zSrdOL__J-41" value="&lt;div style=&quot;font-size: 11.27px;&quot;&gt;&lt;div style=&quot;font-size: 11.27px;&quot;&gt;DIO_HIGH == pin_logic_status&lt;br style=&quot;font-size: 11.27px;&quot;&gt;&lt;/div&gt;&lt;/div&gt;" style="text;vsdxID=219;fillColor=none;gradientColor=none;strokeColor=none;spacingTop=-1;spacingBottom=-1;spacingLeft=-1;spacingRight=-1;points=[[0,0.5,0],[1,0.5,0],[0.5,0,0],[0.5,1,0]];labelBackgroundColor=none;rounded=1;html=1;whiteSpace=wrap;verticalAlign=middle;align=center;overflow=width;;html=1;fontColor=#000000;fontFamily=Calibri;fontSize=11.27;" vertex="1" parent="ufE7wBq0T08zSrdOL__J-40">
          <mxGeometry x="45.509130434782605" y="18.104166666666664" width="94.84304347826087" height="42.791666666666664" as="geometry" />
        </mxCell>
        <mxCell id="ufE7wBq0T08zSrdOL__J-42" value="" style="endArrow=classic;html=1;rounded=0;fontSize=11.27;startSize=8;endSize=8;curved=1;exitX=0.5;exitY=1;exitDx=0;exitDy=0;exitPerimeter=0;entryX=0.5;entryY=0;entryDx=0;entryDy=0;entryPerimeter=0;fontFamily=Calibri;" edge="1" parent="1" source="ufE7wBq0T08zSrdOL__J-34" target="ufE7wBq0T08zSrdOL__J-40">
          <mxGeometry width="50" height="50" relative="1" as="geometry">
            <mxPoint x="180" y="670" as="sourcePoint" />
            <mxPoint x="230" y="620" as="targetPoint" />
          </mxGeometry>
        </mxCell>
        <mxCell id="ufE7wBq0T08zSrdOL__J-43" value="&lt;font style=&quot;font-size: 11.27px;&quot; face=&quot;Calibri&quot;&gt;*btn_state = PUSH_BTN_STATE_PRESSED&lt;/font&gt;" style="rounded=0;whiteSpace=wrap;html=1;fontSize=11.27;fillColor=#d5e8d4;strokeColor=#82b366;fontFamily=Calibri;" vertex="1" parent="1">
          <mxGeometry x="-20" y="719.5" width="143" height="40" as="geometry" />
        </mxCell>
        <mxCell id="ufE7wBq0T08zSrdOL__J-44" value="" style="endArrow=classic;html=1;rounded=0;fontSize=11.27;startSize=8;endSize=8;curved=1;exitX=0;exitY=0.5;exitDx=0;exitDy=0;exitPerimeter=0;entryX=1;entryY=0.5;entryDx=0;entryDy=0;fontFamily=Calibri;" edge="1" parent="1" source="ufE7wBq0T08zSrdOL__J-40" target="ufE7wBq0T08zSrdOL__J-43">
          <mxGeometry width="50" height="50" relative="1" as="geometry">
            <mxPoint x="130" y="690" as="sourcePoint" />
            <mxPoint x="180" y="640" as="targetPoint" />
          </mxGeometry>
        </mxCell>
        <mxCell id="ufE7wBq0T08zSrdOL__J-45" value="YES" style="text;html=1;strokeColor=none;fillColor=none;align=center;verticalAlign=middle;whiteSpace=wrap;rounded=0;fontFamily=Calibri;fontSize=11;" vertex="1" parent="1">
          <mxGeometry x="130" y="710" width="60" height="30" as="geometry" />
        </mxCell>
        <mxCell id="ufE7wBq0T08zSrdOL__J-46" value="&lt;font style=&quot;font-size: 11.27px;&quot; face=&quot;Calibri&quot;&gt;*btn_state = PUSH_BTN_STATE_RELEASED&lt;/font&gt;" style="rounded=0;whiteSpace=wrap;html=1;fontSize=11.27;fillColor=#d5e8d4;strokeColor=#82b366;fontFamily=Calibri;" vertex="1" parent="1">
          <mxGeometry x="-19.999999999999943" y="800" width="138.57" height="40" as="geometry" />
        </mxCell>
        <mxCell id="ufE7wBq0T08zSrdOL__J-47" value="" style="endArrow=classic;html=1;rounded=0;fontSize=11.27;startSize=8;endSize=8;exitX=0.5;exitY=1;exitDx=0;exitDy=0;exitPerimeter=0;entryX=1;entryY=0.5;entryDx=0;entryDy=0;edgeStyle=orthogonalEdgeStyle;fontFamily=Calibri;" edge="1" parent="1" source="ufE7wBq0T08zSrdOL__J-40" target="ufE7wBq0T08zSrdOL__J-46">
          <mxGeometry width="50" height="50" relative="1" as="geometry">
            <mxPoint x="90" y="690" as="sourcePoint" />
            <mxPoint x="140" y="640" as="targetPoint" />
          </mxGeometry>
        </mxCell>
        <mxCell id="ufE7wBq0T08zSrdOL__J-48" value="NO" style="text;html=1;strokeColor=none;fillColor=none;align=center;verticalAlign=middle;whiteSpace=wrap;rounded=0;fontFamily=Calibri;fontSize=11;" vertex="1" parent="1">
          <mxGeometry x="165" y="797" width="60" height="30" as="geometry" />
        </mxCell>
        <UserObject label="&lt;div style=&quot;font-size: 11.27px;&quot;&gt;&lt;span style=&quot;font-size: 11.27px;&quot;&gt;Stop&lt;/span&gt;&lt;/div&gt;" Function="EN_DIO_Error_T DIO_init(uint8_t pinNumber, EN_DIO_PORT_T portNumber, EN_DIO_DIRECTION_T direction);" tags="Flowchart" id="ufE7wBq0T08zSrdOL__J-49">
          <mxCell style="verticalAlign=middle;align=center;overflow=width;vsdxID=30;fillColor=#dae8fc;shape=stencil(tVLREoIgEPwaHnEQxsl3s/9gEpSJwDko7e+DsEkze2l627vdu5uFRaxyHe8FosR5sCcxqMZ3iO0Rpcp0ApQPCLEasUpaEC3Yi2lS3fOojOhsr3HDmObyMtsVcYqS29Qh5FEfklwrM5OXeUa/yjkcAwfr7TDpiyTfXvjkMR+Vw2A998qaBac5tAKHU1hq3i4oNwjRr9ofvayt/+Rk+yX/4iWA159KpXWKxJx/z0Bopfyw+g4=);strokeColor=#6c8ebf;spacingTop=-1;spacingBottom=-1;spacingLeft=-1;spacingRight=-1;points=[[0.5,1,0],[0.5,0,0],[0,0.5,0],[1,0.5,0]];labelBackgroundColor=none;rounded=1;html=1;whiteSpace=wrap;fontFamily=Calibri;fontSize=11.27;" vertex="1" parent="1">
            <mxGeometry x="274" y="880" width="101" height="38" as="geometry" />
          </mxCell>
        </UserObject>
        <mxCell id="ufE7wBq0T08zSrdOL__J-50" value="" style="endArrow=classic;html=1;rounded=0;fontSize=11.27;startSize=8;endSize=8;exitX=0;exitY=0.5;exitDx=0;exitDy=0;entryX=0;entryY=0.5;entryDx=0;entryDy=0;entryPerimeter=0;edgeStyle=orthogonalEdgeStyle;fontFamily=Calibri;" edge="1" parent="1" source="ufE7wBq0T08zSrdOL__J-43" target="ufE7wBq0T08zSrdOL__J-49">
          <mxGeometry width="50" height="50" relative="1" as="geometry">
            <mxPoint x="110" y="820" as="sourcePoint" />
            <mxPoint x="160" y="770" as="targetPoint" />
          </mxGeometry>
        </mxCell>
        <mxCell id="ufE7wBq0T08zSrdOL__J-51" value="" style="endArrow=classic;html=1;rounded=0;fontSize=11.27;startSize=8;endSize=8;exitX=0;exitY=0.5;exitDx=0;exitDy=0;edgeStyle=orthogonalEdgeStyle;fontFamily=Calibri;" edge="1" parent="1" source="ufE7wBq0T08zSrdOL__J-46" target="ufE7wBq0T08zSrdOL__J-49">
          <mxGeometry width="50" height="50" relative="1" as="geometry">
            <mxPoint x="110" y="820" as="sourcePoint" />
            <mxPoint x="160" y="770" as="targetPoint" />
            <Array as="points">
              <mxPoint x="-50" y="820" />
              <mxPoint x="-50" y="860" />
              <mxPoint x="325" y="860" />
            </Array>
          </mxGeometry>
        </mxCell>
        <mxCell id="ufE7wBq0T08zSrdOL__J-52" value="" style="endArrow=classic;html=1;rounded=0;fontSize=11.27;startSize=8;endSize=8;exitX=0;exitY=0.5;exitDx=0;exitDy=0;entryX=0.5;entryY=1;entryDx=0;entryDy=0;entryPerimeter=0;edgeStyle=orthogonalEdgeStyle;fontFamily=Calibri;" edge="1" parent="1" source="ufE7wBq0T08zSrdOL__J-37" target="ufE7wBq0T08zSrdOL__J-49">
          <mxGeometry width="50" height="50" relative="1" as="geometry">
            <mxPoint x="110" y="850" as="sourcePoint" />
            <mxPoint x="160" y="800" as="targetPoint" />
            <Array as="points">
              <mxPoint x="-80" y="590" />
              <mxPoint x="-80" y="940" />
              <mxPoint x="325" y="940" />
            </Array>
          </mxGeometry>
        </mxCell>
        <mxCell id="ufE7wBq0T08zSrdOL__J-53" value="" style="endArrow=classic;html=1;rounded=0;fontSize=11.27;startSize=8;endSize=8;exitX=0.5;exitY=1;exitDx=0;exitDy=0;entryX=1;entryY=0.5;entryDx=0;entryDy=0;entryPerimeter=0;edgeStyle=orthogonalEdgeStyle;fontFamily=Calibri;" edge="1" parent="1" source="ufE7wBq0T08zSrdOL__J-9" target="ufE7wBq0T08zSrdOL__J-49">
          <mxGeometry width="50" height="50" relative="1" as="geometry">
            <mxPoint x="430" y="800" as="sourcePoint" />
            <mxPoint x="480" y="750" as="targetPoint" />
          </mxGeometry>
        </mxCell>
        <mxCell id="ufE7wBq0T08zSrdOL__J-54" value="" style="endArrow=classic;html=1;rounded=0;fontSize=11.27;startSize=8;endSize=8;exitX=0.404;exitY=1.043;exitDx=0;exitDy=0;exitPerimeter=0;edgeStyle=orthogonalEdgeStyle;fontFamily=Calibri;" edge="1" parent="1" source="ufE7wBq0T08zSrdOL__J-18" target="ufE7wBq0T08zSrdOL__J-49">
          <mxGeometry width="50" height="50" relative="1" as="geometry">
            <mxPoint x="560" y="800" as="sourcePoint" />
            <mxPoint x="610" y="750" as="targetPoint" />
            <Array as="points">
              <mxPoint x="758" y="780" />
              <mxPoint x="360" y="780" />
            </Array>
          </mxGeometry>
        </mxCell>
      </root>
    </mxGraphModel>
  </diagram>
</mxfile>
